<?xml version="1.0" encoding="UTF-8"?>
<svg xmlns="http://www.w3.org/2000/svg" xmlns:xlink="http://www.w3.org/1999/xlink" viewBox="0 0 64 64">
  <defs>
    <style>
      .cls-1 {
        fill: #040e17;
      }

      .cls-1, .cls-2 {
        stroke-width: 0px;
      }

      .cls-2 {
        fill: #1b232b;
      }

      .cls-3 {
        fill: #fff;
        font-family: LucidaConsole, 'Lucida Console';
        font-size: 33px;
      }
    </style>
  </defs>
  <g id="Reference">
    <image width="256" height="256" transform="scale(.25)" xlink:href="smallicon.png"/>
  </g>
  <g id="Background">
    <rect class="cls-1" width="64" height="64"/>
  </g>
  <g id="Maze">
    <polygon class="cls-2" points="38 2 38 20 32 20 32 8 2 8 2 2 38 2"/>
    <polygon class="cls-2" points="32 38 32 50 26 50 26 44 14 44 14 20 8 20 8 62 2 62 2 14 26 14 26 20 20 20 20 38 32 38"/>
    <polygon class="cls-2" points="32 56 32 62 14 62 14 50 20 50 20 56 32 56"/>
    <polygon class="cls-2" points="44 32 44 50 50 50 50 62 44 62 44 56 38 56 38 32 26 32 26 26 44 26 44 14 50 14 50 32 44 32"/>
    <polygon class="cls-2" points="62 38 62 62 56 62 56 44 50 44 50 38 62 38"/>
    <polygon class="cls-2" points="62 2 62 32 56 32 56 8 44 8 44 2 62 2"/>
  </g>
  <g id="Text">
    <text class="cls-3" transform="translate(2.17 44.72)"><tspan x="0" y="0">&lt;/&gt;</tspan></text>
  </g>
</svg>